<svg xmlns="http://www.w3.org/2000/svg" width="34" height="34" viewBox="0 0 34 34">
    <g id="Group_960" transform="translate(-366 -13.899)">
        <path id="Path_728" d="M44.688,46.559H32.423a1.278,1.278,0,0,1-1.277-1.277,2.6,2.6,0,0,1,.915-1.984,1.3,1.3,0,0,0,.455-.987V37.8a6.04,6.04,0,0,1,12.08,0v4.512a1.3,1.3,0,0,0,.455.987,2.605,2.605,0,0,1,.915,1.984A1.278,1.278,0,0,1,44.688,46.559ZM32.457,45.248h12.2a1.3,1.3,0,0,0-.455-.953,2.606,2.606,0,0,1-.915-1.984V37.8a4.729,4.729,0,0,0-9.459,0v4.512a2.606,2.606,0,0,1-.915,1.984A1.3,1.3,0,0,0,32.457,45.248Z" transform="translate(344.444 -8.121)" fill="#707070"/>
        <path id="Path_729" d="M90.469,208.958a3.037,3.037,0,0,1-3.033-3.033c0-.014,0-.033,0-.05a.656.656,0,0,1,1.31.048c0,.005,0,.011,0,.018a1.722,1.722,0,0,0,3.445,0c0-.01,0-.02,0-.027a.655.655,0,0,1,1.31-.022c0,.012,0,.027,0,.037A3.037,3.037,0,0,1,90.469,208.958Z" transform="translate(292.531 -168.127)" fill="#707070"/>
        <path id="Path_730" d="M104.028,3.781a1.89,1.89,0,1,1,1.89-1.89A1.892,1.892,0,0,1,104.028,3.781Zm0-2.47a.579.579,0,1,0,.579.579A.58.58,0,0,0,104.028,1.311Z" transform="translate(278.972 21.169)" fill="#707070"/>
        <path id="Path_731" d="M173.421,13.921a.655.655,0,0,1-.655-.655,7.743,7.743,0,0,0-4.158-6.872.655.655,0,1,1,.609-1.161,9.05,9.05,0,0,1,4.86,8.033A.655.655,0,0,1,173.421,13.921Z" transform="translate(217.994 16.412)" fill="#707070"/>
        <path id="Path_732" d="M10.443,13.922a.655.655,0,0,1-.655-.655,9.05,9.05,0,0,1,4.859-8.033.655.655,0,1,1,.609,1.161A7.743,7.743,0,0,0,11.1,13.267.655.655,0,0,1,10.443,13.922Z" transform="translate(364.143 16.411)" fill="#707070"/>
    </g>
</svg>


