<svg xmlns="http://www.w3.org/2000/svg" width="17.047" height="17.036" viewBox="0 0 17.047 17.036">
    <path id="Path_733" d="M3.416.169h.04l.071,0,.094.008L3.7.192c.03,0,.059.009.089.016l.078.019.01,0,.073.02.067.024.014.005.023.008.054.02c.022.009.044.02.067.031l.017.008.03.014.04.019c.023.012.045.026.068.04L4.345.43,4.38.451l.026.016c.028.019.055.04.082.061L4.5.535l.037.028.011.008c.047.039.092.079.132.119l1.5,1.5c.041.041.081.085.118.13l.01.013.027.037.008.011c.02.027.041.053.06.081.006.009.011.018.016.027l.021.035.012.019c.014.022.027.044.04.067s.013.026.019.04l.014.03L6.53,2.7c.01.022.021.044.031.066s.013.035.02.053l.008.023.005.014c.008.022.017.045.024.068s.013.047.019.071l0,.017c.006.024.013.049.018.073s.011.059.015.088.008.051.011.076.006.062.008.094,0,.048,0,.071,0,.066,0,.1,0,.044,0,.067-.006.069-.01.1-.006.041-.009.061c-.006.036-.012.071-.02.106,0,.017-.008.033-.013.055s-.019.073-.03.109l-.01.028L6.6,4.058c-.013.037-.027.075-.042.111l-.007.015-.012.025c-.018.038-.036.076-.058.117l-.016.027c-.027.046-.048.081-.067.11l-.018.025c-.034.049-.063.087-.091.12-.042.05-.075.087-.107.119L5.164,5.741a.885.885,0,0,0,0,1.25l4.384,4.384a.884.884,0,0,0,1.25,0l1.014-1.014c.032-.032.068-.064.119-.107.033-.028.071-.057.12-.091l.024-.018c.029-.02.064-.041.111-.068l.029-.017c.037-.021.076-.039.115-.056l.025-.012.014-.006c.037-.016.074-.03.113-.043l.019-.007.027-.009c.036-.012.073-.021.116-.032l.048-.012c.035-.008.071-.014.107-.02l.06-.009c.034,0,.069-.007.1-.01l.066,0h.1l.071,0,.094.008.075.011c.03,0,.059.009.089.016l.078.019.01,0,.073.02.067.024.014.005.023.008.054.02.066.031.017.008.03.014.04.019c.023.012.045.026.068.04l.018.011.035.021.026.016c.028.019.055.04.082.061l.01.008.037.028.011.008c.047.039.092.079.132.119l1.5,1.5c.041.041.081.085.118.13l.01.013.027.037.008.011c.02.027.041.053.06.081.006.009.011.018.016.027l.021.035.012.019c.014.022.027.044.039.067s.013.026.019.04l.014.03.009.018c.01.022.021.044.031.066s.013.035.02.053l.008.023.005.014c.008.022.017.045.024.068s.013.047.019.071l0,.017c.006.024.013.049.018.074s.011.059.015.088.008.051.011.076.006.062.008.094,0,.048,0,.071,0,.066,0,.1,0,.044,0,.067-.006.069-.01.1-.006.041-.009.061c-.006.036-.012.071-.02.106,0,.017-.008.033-.013.055s-.019.073-.031.109l-.01.028-.007.019c-.013.037-.027.075-.042.111l-.007.015-.012.025c-.018.038-.036.076-.058.117l-.016.027c-.027.046-.048.081-.067.11l-.018.025c-.034.049-.063.087-.091.12-.042.05-.075.087-.107.119l0,0,0,0a4.231,4.231,0,0,1-3.121,1.2c-2.385,0-5.128-1.44-7.727-4.058C2.35,8.923.91,6.159.936,3.759A4.213,4.213,0,0,1,2.132.7l0,0,0,0C2.173.658,2.21.625,2.26.583c.033-.028.071-.057.12-.091L2.4.474c.029-.02.064-.041.111-.068L2.545.389C2.583.368,2.621.35,2.66.332L2.684.321,2.7.314c.037-.016.075-.03.113-.043L2.83.264,2.857.255c.036-.012.073-.021.116-.032L3.021.211C3.056.2,3.091.2,3.128.191l.06-.009c.034,0,.069-.007.1-.01l.066,0h.059m0-.551H3.34l-.086,0q-.067,0-.134.013l-.078.011c-.047.007-.093.016-.139.026l-.07.017c-.048.012-.1.025-.143.04l-.061.021c-.049.017-.1.036-.147.056L2.43-.169c-.051.023-.1.047-.15.074l-.039.023c-.052.03-.1.06-.153.094L2.064.04c-.054.038-.107.077-.158.12h0C1.854.2,1.8.25,1.752.3-.327,2.278-.513,6.858,4.6,11.935c3.031,3.054,5.886,4.219,8.115,4.219a4.76,4.76,0,0,0,3.521-1.368c.05-.05.1-.1.14-.155h0c.043-.051.082-.1.119-.157l.018-.025c.034-.05.064-.1.094-.152.008-.013.016-.026.024-.04.027-.049.051-.1.074-.149.008-.017.016-.034.024-.051.021-.048.039-.1.056-.146.007-.021.015-.041.021-.062.015-.047.028-.095.04-.143.006-.024.012-.047.017-.071.01-.046.018-.092.026-.139,0-.026.008-.053.011-.079.006-.044.01-.089.012-.134,0-.029,0-.058,0-.087s0-.085,0-.128,0-.062,0-.093-.006-.082-.01-.122-.009-.066-.014-.1-.012-.077-.02-.115-.016-.069-.025-.1-.018-.072-.03-.108-.024-.071-.037-.107-.024-.067-.037-.1-.033-.073-.051-.11-.028-.062-.044-.091-.044-.075-.066-.113-.031-.054-.049-.081c-.028-.041-.058-.081-.089-.121-.016-.021-.03-.043-.047-.063-.049-.06-.1-.117-.156-.173l-1.5-1.5c-.055-.055-.113-.107-.173-.156-.02-.017-.042-.031-.063-.047-.04-.03-.08-.061-.121-.089-.026-.017-.053-.032-.08-.049s-.075-.046-.113-.067-.061-.03-.091-.044-.073-.035-.11-.051-.067-.025-.1-.038-.071-.026-.107-.037-.072-.02-.109-.03-.068-.018-.1-.025-.077-.015-.116-.021l-.1-.014c-.041,0-.082-.008-.123-.01l-.093,0H13.01l-.086,0q-.067,0-.134.013l-.079.011c-.047.007-.093.016-.139.026l-.07.017c-.048.012-.1.025-.143.04l-.061.021c-.049.017-.1.036-.147.056L12.1,9.5c-.051.023-.1.047-.15.074l-.039.023c-.052.03-.1.06-.153.094l-.024.017c-.054.038-.107.077-.158.12h0c-.053.044-.105.09-.155.14l-1.014,1.014a.333.333,0,0,1-.47,0L5.553,6.6a.333.333,0,0,1,0-.471L6.568,5.116c.05-.05.1-.1.14-.155h0c.043-.051.082-.1.119-.157l.018-.025c.034-.05.064-.1.094-.152.008-.013.016-.026.024-.04.027-.049.051-.1.074-.149.008-.017.016-.034.024-.051.021-.048.039-.1.056-.146.007-.021.015-.041.021-.062.015-.047.028-.095.04-.143.006-.024.012-.047.017-.071.01-.046.018-.092.026-.139,0-.026.008-.053.011-.079.006-.044.01-.089.012-.134,0-.029,0-.058,0-.087s0-.085,0-.128,0-.062,0-.093-.006-.082-.01-.122-.009-.066-.014-.1-.012-.077-.02-.115-.016-.069-.025-.1-.018-.072-.03-.108-.024-.071-.037-.107-.024-.067-.037-.1-.033-.073-.051-.11-.028-.062-.044-.091-.044-.075-.066-.113-.031-.054-.049-.081c-.028-.041-.058-.081-.089-.121-.016-.021-.03-.043-.047-.063-.049-.06-.1-.117-.156-.173L5.068.3C5.013.244,4.955.192,4.9.144,4.875.127,4.854.113,4.833.1c-.04-.03-.08-.061-.121-.089-.026-.017-.053-.032-.08-.049s-.075-.046-.113-.067-.061-.03-.091-.044S4.354-.187,4.317-.2s-.067-.025-.1-.038S4.146-.266,4.11-.277,4.038-.3,4-.307s-.068-.018-.1-.025-.077-.015-.116-.021l-.1-.014c-.041,0-.082-.008-.123-.01l-.093,0Z" transform="translate(-0.123 0.632)" fill="#707070" stroke="#707070" stroke-width="0.5"/>
</svg>
