<svg xmlns="http://www.w3.org/2000/svg" width="15.504" height="17.552" viewBox="0 0 15.504 17.552">
    <g id="user-6767" transform="translate(0.15 0.15)">
        <path id="Path_760" d="M30.218,143.829h-15.2v-.383a7.6,7.6,0,1,1,15.2,0Zm-14.427-.767H29.44a6.835,6.835,0,0,0-13.649,0Z" transform="translate(-15.014 -126.577)" fill="#707070" stroke="#707070" stroke-width="0.3"/>
        <path id="Path_761" d="M68.887,8.429A4.214,4.214,0,1,1,73.1,4.214,4.219,4.219,0,0,1,68.887,8.429Zm0-7.662a3.448,3.448,0,1,0,3.448,3.448A3.451,3.451,0,0,0,68.887.767Z" transform="translate(-61.285)" fill="#707070" stroke="#707070" stroke-width="0.3"/>
    </g>
</svg>
