<svg xmlns="http://www.w3.org/2000/svg" width="12.726" height="16.947" viewBox="0 0 12.726 16.947">
    <g id="delete-10399" transform="translate(-32.2 0.25)">
        <path id="Path_786" d="M57.6,74.2H49.116a.842.842,0,0,1-.841-.841V61.952a.183.183,0,0,1,.183-.183h9.8a.183.183,0,0,1,.183.183V73.359A.841.841,0,0,1,57.6,74.2ZM48.641,62.135V73.359a.476.476,0,0,0,.475.475H57.6a.476.476,0,0,0,.475-.475V62.135Z" transform="translate(-14.797 -57.752)" stroke="#707070" stroke-width="0.5"/>
        <path id="Path_787" d="M43.836,31.564H33.291a.842.842,0,0,1-.841-.841v-.811a.842.842,0,0,1,.841-.841H43.836a.842.842,0,0,1,.841.841v.811A.842.842,0,0,1,43.836,31.564ZM33.291,29.438a.476.476,0,0,0-.475.475v.811a.476.476,0,0,0,.475.475H43.836a.476.476,0,0,0,.475-.475v-.811a.476.476,0,0,0-.475-.475Z" transform="translate(0 -27.182)" stroke="#707070" stroke-width="0.5"/>
        <path id="Path_788" d="M93.315,2.256H88.754a.183.183,0,0,1-.183-.183V.841A.842.842,0,0,1,89.412,0h3.246A.842.842,0,0,1,93.5.841V2.074A.183.183,0,0,1,93.315,2.256Zm-4.379-.365h4.2V.841a.476.476,0,0,0-.475-.475H89.412a.476.476,0,0,0-.475.475v1.05Z" transform="translate(-52.472 0)" stroke="#707070" stroke-width="0.5"/>
        <path id="Path_789" d="M123.823,102.648a.183.183,0,0,1-.183-.183v-7.81a.183.183,0,1,1,.365,0v7.81A.183.183,0,0,1,123.823,102.648Z" transform="translate(-85.26 -88.328)" stroke="#707070" stroke-width="0.5"/>
        <path id="Path_790" d="M161.836,102.648a.183.183,0,0,1-.183-.183v-7.81a.183.183,0,1,1,.365,0v7.81A.183.183,0,0,1,161.836,102.648Z" transform="translate(-120.801 -88.328)" stroke="#707070" stroke-width="0.5"/>
        <path id="Path_791" d="M85.806,102.648a.183.183,0,0,1-.183-.183v-7.81a.183.183,0,0,1,.365,0v7.81A.183.183,0,0,1,85.806,102.648Z" transform="translate(-49.716 -88.328)" stroke="#707070" stroke-width="0.5"/>
    </g>
</svg>
