<svg xmlns="http://www.w3.org/2000/svg" width="32.408" height="25.454" viewBox="0 0 32.408 25.454">
    <g id="Group_966" transform="translate(5513.569 -561.346)">
        <g id="cart-963_1_" transform="translate(-5513.314 561.643)">
            <path id="Path_756" d="M31.656,34.029a1.475,1.475,0,0,0-1.17-.541H25.479l-5.62-5.62a.526.526,0,1,0-.744.744l4.877,4.877H7.906l4.877-4.877a.526.526,0,1,0-.744-.744l-5.62,5.62H1.411a1.474,1.474,0,0,0-1.17.541A1.119,1.119,0,0,0,.035,35L4.367,51.663a1.375,1.375,0,0,0,1.376.958H26.154a1.377,1.377,0,0,0,1.377-.958L31.862,35A1.119,1.119,0,0,0,31.656,34.029Zm-.811.707L26.513,51.4a.374.374,0,0,1-.358.172H5.743a.376.376,0,0,1-.359-.171L1.053,34.736c0-.01-.007-.028.021-.063a.431.431,0,0,1,.338-.133H30.486a.429.429,0,0,1,.338.133C30.852,34.709,30.847,34.727,30.844,34.736Z" transform="translate(0 -27.714)" fill="#707070" stroke="#707070" stroke-width="0.5"/>
            <path id="Path_757" d="M122.806,107.727a.526.526,0,0,0-.526.526v9.9a.526.526,0,1,0,1.052,0v-9.9A.526.526,0,0,0,122.806,107.727Z" transform="translate(-106.857 -97.635)" fill="#707070" stroke="#707070" stroke-width="0.5"/>
            <path id="Path_758" d="M164.492,107.727a.526.526,0,0,0-.526.526v9.9a.526.526,0,0,0,1.052,0v-9.9A.526.526,0,0,0,164.492,107.727Z" transform="translate(-143.285 -97.635)" fill="#707070" stroke="#707070" stroke-width="0.5"/>
            <path id="Path_759" d="M81.117,107.727a.526.526,0,0,0-.526.526v9.9a.526.526,0,1,0,1.052,0v-9.9A.526.526,0,0,0,81.117,107.727Z" transform="translate(-70.426 -97.635)" fill="#707070" stroke="#707070" stroke-width="0.5"/>
        </g>
    </g>
</svg>
