<svg id="app-11173" xmlns="http://www.w3.org/2000/svg" width="26.645" height="26.646" viewBox="0 0 26.645 26.646">
    <path id="Path_752"  d="M10.8,12.411H1.613A1.615,1.615,0,0,1,0,10.8V1.613A1.615,1.615,0,0,1,1.613,0H10.8a1.615,1.615,0,0,1,1.613,1.613V10.8A1.614,1.614,0,0,1,10.8,12.411ZM1.613,1.184a.429.429,0,0,0-.428.428V10.8a.429.429,0,0,0,.428.428H10.8a.429.429,0,0,0,.428-.428V1.613a.428.428,0,0,0-.428-.428Z" fill="#707070"/>
    <path id="Path_753"  d="M145.9,12.411h-9.186A1.614,1.614,0,0,1,135.1,10.8V1.613A1.614,1.614,0,0,1,136.717,0H145.9a1.615,1.615,0,0,1,1.613,1.613V10.8A1.615,1.615,0,0,1,145.9,12.411ZM136.717,1.184a.429.429,0,0,0-.428.428V10.8a.429.429,0,0,0,.428.428H145.9a.429.429,0,0,0,.428-.428V1.613a.428.428,0,0,0-.428-.428Z" transform="translate(-120.87)" fill="#707070"/>
    <path id="Path_754"  d="M10.8,147.516H1.613A1.614,1.614,0,0,1,0,145.9v-9.186A1.614,1.614,0,0,1,1.613,135.1H10.8a1.614,1.614,0,0,1,1.613,1.613V145.9A1.614,1.614,0,0,1,10.8,147.516ZM1.613,136.289a.429.429,0,0,0-.428.428V145.9a.429.429,0,0,0,.428.429H10.8a.429.429,0,0,0,.428-.428v-9.186a.429.429,0,0,0-.428-.428Z" transform="translate(0 -120.87)" fill="#707070"/>
    <path id="Path_755"  d="M145.9,147.516h-9.186A1.614,1.614,0,0,1,135.1,145.9v-9.186a1.614,1.614,0,0,1,1.613-1.613H145.9a1.614,1.614,0,0,1,1.613,1.613V145.9A1.614,1.614,0,0,1,145.9,147.516Zm-9.186-11.227a.429.429,0,0,0-.428.428V145.9a.429.429,0,0,0,.428.428H145.9a.428.428,0,0,0,.429-.428v-9.186a.429.429,0,0,0-.428-.428Z" transform="translate(-120.87 -120.87)" fill="#707070"/>
</svg>
