<svg xmlns="http://www.w3.org/2000/svg" width="28.493" height="28.165" viewBox="0 0 28.493 28.165">
    <g id="home-918" transform="translate(0.5 0.707)">
        <path id="Path_750" d="M26.982,16.473a.451.451,0,0,1-.32-.133L13.717,3.395.771,16.34a.452.452,0,0,1-.64-.64L13.717,2.116,27.3,15.7a.452.452,0,0,1-.32.772Z" transform="translate(0.001 -2.116)" fill="#07aeaf" stroke="#07aeaf" stroke-width="1"/>
        <path id="Path_751" d="M50.612,97.69a.452.452,0,0,0-.452.452V112.83a.546.546,0,0,1-.546.546H44.5v-6.614a3.128,3.128,0,0,0-3.124-3.124H39.864a3.128,3.128,0,0,0-3.124,3.124v6.614H31.627a.546.546,0,0,1-.546-.546V98.142a.452.452,0,1,0-.9,0V112.83a1.452,1.452,0,0,0,1.45,1.45h6.017v-7.518a2.222,2.222,0,0,1,2.22-2.22h1.513a2.222,2.222,0,0,1,2.219,2.22v7.518h6.017a1.452,1.452,0,0,0,1.45-1.45V98.142A.452.452,0,0,0,50.612,97.69Z" transform="translate(-26.903 -87.322)" fill="#07aeaf" stroke="#07aeaf" stroke-width="1"/>
    </g>
</svg>
